<svg width="22" height="27" viewBox="0 0 22 27" fill="none" xmlns="http://www.w3.org/2000/svg">
<path d="M1.68762 22.0263V1.64848H11.8147V6.05379C11.8147 6.50857 12.1931 6.87789 12.6585 6.87789H17.1692V14.921C17.7512 14.9494 18.3331 15.0632 18.8571 15.2337V5.20107C18.8571 4.97367 18.7698 4.77483 18.6242 4.6327L14.1138 0.227393C13.9682 0.0852477 13.7354 0 13.5318 0H0.843821C0.378161 0 0 0.369534 0 0.824107V22.8504C0 23.3052 0.378374 23.6745 0.843821 23.6745H9.89418C9.71961 23.163 9.63232 22.5946 9.60329 22.0262L1.68762 22.0263ZM13.5026 1.96111L16.8491 5.22943H13.5026V1.96111Z" fill="black"/>
<path d="M9.25384 17.5358H5.23808C4.77242 17.5358 4.39426 17.9053 4.39426 18.3599C4.39426 18.8147 4.77263 19.184 5.23808 19.184L9.25384 19.1842C9.7195 19.1842 10.0977 18.8147 10.0977 18.3601C10.0979 17.9053 9.71949 17.5358 9.25384 17.5358V17.5358Z" fill="black"/>
<path d="M13.619 13.4148H5.23792C4.77226 13.4148 4.3941 13.7843 4.3941 14.2389C4.3941 14.6937 4.77248 15.063 5.23792 15.063L13.619 15.0632C14.0846 15.0632 14.4628 14.6936 14.4628 14.2391C14.463 13.7843 14.0846 13.4148 13.619 13.4148V13.4148Z" fill="black"/>
<path d="M13.619 9.32215H5.23792C4.77226 9.32215 4.3941 9.69168 4.3941 10.1463C4.3941 10.601 4.77248 10.9704 5.23792 10.9704L13.619 10.9706C14.0846 10.9706 14.4628 10.601 14.4628 10.1465C14.463 9.69167 14.0846 9.32214 13.619 9.32214V9.32215Z" fill="black"/>
<path d="M5.23792 6.87797H8.67172C9.13738 6.87797 9.51554 6.50843 9.51554 6.05386C9.51554 5.59908 9.13717 5.22975 8.67172 5.22975L5.23792 5.22955C4.77226 5.22955 4.3941 5.59909 4.3941 6.05366C4.3939 6.50844 4.77227 6.87797 5.23792 6.87797V6.87797Z" fill="black"/>
<path d="M16.6454 16.5411C13.6771 16.5411 11.2909 18.8715 11.2909 21.7705C11.2909 24.6695 13.6773 27 16.6454 27C19.6138 27 22 24.6694 22 21.7705C22 18.8715 19.6138 16.5411 16.6454 16.5411V16.5411ZM19.2064 21.1735L16.4708 23.8452C16.2963 24.0157 16.0925 24.0726 15.8889 24.0726C15.6851 24.0726 15.4524 23.9873 15.3069 23.8452L13.9099 22.5377C13.5898 22.2251 13.5898 21.685 13.9099 21.3724C14.23 21.0597 14.783 21.0597 15.1031 21.3724L15.8597 22.1113L18.0132 20.0081C18.3333 19.6954 18.8863 19.6954 19.2064 20.0081C19.5263 20.3495 19.5263 20.861 19.2064 21.1736V21.1735Z" fill="black"/>
</svg>
