<svg width="28" height="25" viewBox="0 0 28 25" fill="none" xmlns="http://www.w3.org/2000/svg">
<path d="M23.7804 9.9612V9.31742C23.7804 4.46266 19.4433 0.519836 14.103 0.519836C8.76277 0.519836 4.39616 4.46266 4.39616 9.31742V9.93428C1.91766 10.2295 0 12.1607 0 14.4941C0 17.0422 2.27187 19.1075 5.07471 19.1075H6.37294C7.40569 19.1075 8.2612 18.3298 8.2612 17.3909V11.6242C8.2612 10.7391 7.5236 10.0148 6.57936 9.9076V9.31752C6.57936 5.56255 9.94283 2.50475 14.0734 2.50475C18.2039 2.50475 21.5674 5.56245 21.5674 9.31752V9.88088C20.5347 9.90763 19.7382 10.6586 19.7382 11.5975L19.7384 17.3642C19.7384 18.0884 20.24 18.7321 20.9776 18.9736C20.063 20.3684 18.4697 21.3071 16.5815 21.4412C16.4635 20.9585 15.9914 20.5828 15.4014 20.5828H12.7461C12.097 20.5828 11.5364 21.0655 11.5364 21.6826V22.9165C11.5364 23.5066 12.0674 24.0162 12.7461 24.0162H15.4014C15.9914 24.0162 16.493 23.6407 16.5815 23.1043C19.4434 22.9702 21.8627 21.334 22.9543 19.081C25.7278 19.081 27.9996 17.0157 27.9996 14.4677C28.0291 12.2145 26.1999 10.3102 23.7805 9.96148L23.7804 9.9612ZM6.0779 17.0958H5.07481C3.48169 17.0958 2.21291 15.9156 2.21291 14.4941C2.21291 13.0725 3.51115 11.8924 5.07481 11.8924H6.0779V17.0958ZM22.9542 17.0958H21.9512V11.8924H22.9542C24.5474 11.8924 25.8161 13.0726 25.8161 14.4941C25.8161 15.9157 24.5476 17.0958 22.9542 17.0958Z" fill="black"/>
<path d="M12.5393 9.39794C12.5393 8.99569 12.746 8.6202 13.0703 8.35189C13.4243 8.08359 13.8373 7.97639 14.3095 8.05684C14.8995 8.16404 15.4011 8.59323 15.4895 9.12962C15.6371 9.90736 15.1059 10.4975 14.4864 10.6586C13.6309 10.8999 13.0703 11.6509 13.0703 12.4824V13.2334C13.0703 13.7161 13.5128 14.1185 14.0439 14.1185C14.5749 14.1185 15.0176 13.7162 15.0176 13.2334V12.5362C15.0176 12.4558 15.0766 12.4021 15.1061 12.3753C16.7582 11.8926 17.7319 10.4174 17.4074 8.86171C17.1713 7.60108 16.0207 6.58176 14.6636 6.36737C13.6605 6.20647 12.6278 6.44782 11.8608 7.03792C11.0937 7.628 10.651 8.51317 10.651 9.42507C10.651 9.90777 11.0935 10.3102 11.6247 10.3102C12.0968 10.2831 12.5393 9.90757 12.5393 9.39791L12.5393 9.39794Z" fill="black"/>
<path d="M15.0471 15.8352C15.0471 16.3536 14.5847 16.7738 14.0144 16.7738C13.4441 16.7738 12.9816 16.3536 12.9816 15.8352C12.9816 15.3167 13.4441 14.8963 14.0144 14.8963C14.5847 14.8963 15.0471 15.3167 15.0471 15.8352Z" fill="black"/>
</svg>
