<svg width="19" height="24" viewBox="0 0 19 24" fill="none" xmlns="http://www.w3.org/2000/svg">
<path fill-rule="evenodd" clip-rule="evenodd" d="M18.6667 2.22222C18.6667 1.63291 18.4329 1.06748 18.0161 0.650616C17.5992 0.233752 17.0337 0 16.4444 0H2.22222C1.63291 0 1.06748 0.233732 0.650616 0.650616C0.233753 1.06748 0 1.63297 0 2.22222V21.7778C0 22.3671 0.233732 22.9325 0.650616 23.3494C1.06748 23.7662 1.63297 24 2.22222 24H16.4444C17.0338 24 17.5992 23.7663 18.0161 23.3494C18.4329 22.9325 18.6667 22.367 18.6667 21.7778V2.22222ZM12.8889 21.3333H14.6667C14.9119 21.3333 15.1111 21.1341 15.1111 20.8889C15.1111 20.6437 14.9119 20.4444 14.6667 20.4444H12.8889C12.6437 20.4444 12.4444 20.6437 12.4444 20.8889C12.4444 21.1341 12.6437 21.3333 12.8889 21.3333ZM10.6667 14.6667C10.6667 13.9308 10.0692 13.3333 9.33333 13.3333H4C3.2641 13.3333 2.66667 13.9308 2.66667 14.6667V20C2.66667 20.7359 3.2641 21.3333 4 21.3333H9.33333C10.0692 21.3333 10.6667 20.7359 10.6667 20V14.6667ZM3.55556 19.8161V14.6667C3.55556 14.4214 3.75476 14.2222 4 14.2222H9.33333C9.57857 14.2222 9.77778 14.4214 9.77778 14.6667V19.8161L8.49859 18.5369C7.97775 18.0161 7.13331 18.0161 6.61247 18.5369L5.77595 19.3735C5.25232 18.905 4.44876 18.9227 3.9458 19.4258L3.55556 19.8161ZM12.8889 19.5556H15.5556C15.8008 19.5556 16 19.3564 16 19.1112C16 18.8659 15.8008 18.6667 15.5556 18.6667H12.8889C12.6437 18.6667 12.4444 18.8659 12.4444 19.1112C12.4444 19.3564 12.6437 19.5556 12.8889 19.5556ZM16 14.2223C16 13.9868 15.9067 13.76 15.7395 13.5939C15.5734 13.4266 15.3466 13.3334 15.1111 13.3334H13.3333C13.0978 13.3334 12.871 13.4266 12.705 13.5939C12.5377 13.76 12.4445 13.9868 12.4445 14.2223V16.8889C12.4445 17.1245 12.5377 17.3512 12.705 17.5173C12.871 17.6846 13.0978 17.7778 13.3333 17.7778H15.1111C15.3466 17.7778 15.5734 17.6846 15.7395 17.5173C15.9067 17.3512 16 17.1245 16 16.8889V14.2223ZM5.77778 15.1112C5.04188 15.1112 4.44444 15.7086 4.44444 16.4445C4.44444 17.1804 5.04188 17.7778 5.77778 17.7778C6.51368 17.7778 7.11111 17.1804 7.11111 16.4445C7.11111 15.7086 6.51368 15.1112 5.77778 15.1112ZM16 4.00006C16 3.26416 15.4026 2.66672 14.6667 2.66672H4C3.2641 2.66672 2.66667 3.26416 2.66667 4.00006V10.2223C2.66667 10.9582 3.2641 11.5556 4 11.5556H14.6667C15.4026 11.5556 16 10.9582 16 10.2223V4.00006ZM3.55556 10.0384V4.00006C3.55556 3.75482 3.75476 3.55561 4 3.55561H14.6667C14.9119 3.55561 15.1111 3.75482 15.1111 4.00006V10.0384L11.1653 6.09255C10.9147 5.84196 10.576 5.70148 10.2222 5.70148C9.8685 5.70148 9.52975 5.84196 9.27919 6.09255L6.66489 8.70685C6.14126 8.2384 5.3377 8.25606 4.83474 8.75923L3.55556 10.0384ZM6.66667 4.4445C5.93077 4.4445 5.33333 5.04194 5.33333 5.77783C5.33333 6.51373 5.93077 7.11117 6.66667 7.11117C7.40257 7.11117 8 6.51373 8 5.77783C8 5.04194 7.40257 4.4445 6.66667 4.4445Z" fill="black"/>
</svg>
