<svg width="31" height="22" viewBox="0 0 31 22" fill="none" xmlns="http://www.w3.org/2000/svg">
<path d="M28.1817 0H2.81825C1.26818 0 0 1.23749 0 2.75006V19.2499C0 20.7625 1.26818 22 2.81825 22H28.1817C29.7318 22 31 20.7625 31 19.2499V2.75006C31 1.23749 29.7318 0 28.1817 0ZM16.9089 17.8753H2.81825V16.2253C2.81825 14.5753 5.0727 13.3378 8.03178 12.9253C8.1726 12.6502 8.31367 12.3754 8.31367 12.1003C8.31367 11.8252 8.17285 11.5504 8.17285 11.4127C7.0455 10.5877 6.34088 9.35025 6.34088 7.97534C6.34088 5.91285 7.89095 4.12521 9.86375 4.12521C11.8365 4.12521 13.3864 5.91261 13.3864 7.9751C13.3864 9.35001 12.6818 10.5875 11.6955 11.2751C11.5546 11.5502 11.5546 11.6876 11.5546 11.9627C11.5546 12.2377 11.6955 12.5126 11.8365 12.7876C14.7956 13.2001 17.0501 14.5751 17.0501 16.0876V17.8753H16.9089ZM28.1817 15.1252H19.7272V12.3751H28.1817V15.1252ZM28.1817 9.62532H16.9089V6.87527H28.1817V9.62532Z" fill="black"/>
</svg>
