<svg width="19" height="21" viewBox="0 0 19 21" fill="none" xmlns="http://www.w3.org/2000/svg">
<path d="M7.86511 2.24805C8.01755 1.87876 8.27903 1.5625 8.61604 1.33982C8.95305 1.11714 9.35022 0.998169 9.75666 0.998169C10.1631 0.998169 10.5603 1.11714 10.8973 1.33982C11.2343 1.5625 11.4958 1.87876 11.6482 2.24805C13.1569 2.65473 14.4877 3.5356 15.4362 4.75538C16.3847 5.97516 16.8984 7.46639 16.8984 9.00005V13.697L18.7676 16.445C18.8701 16.5956 18.9289 16.7707 18.9379 16.9515C18.9469 17.1324 18.9056 17.3122 18.8184 17.4718C18.7313 17.6314 18.6016 17.7649 18.4431 17.8579C18.2847 17.951 18.1034 18.0001 17.9187 18H13.2918C13.169 18.8331 12.744 19.595 12.0948 20.146C11.4455 20.697 10.6155 21.0003 9.75666 21.0003C8.89785 21.0003 8.06779 20.697 7.41854 20.146C6.76929 19.595 6.34432 18.8331 6.22148 18H1.59463C1.40992 18.0001 1.22866 17.951 1.07021 17.8579C0.911748 17.7649 0.78203 17.6314 0.69489 17.4718C0.60775 17.3122 0.566459 17.1324 0.57542 16.9515C0.584382 16.7707 0.64326 16.5956 0.745774 16.445L2.61488 13.697V9.00005C2.61488 5.77605 4.83904 3.06005 7.86511 2.24805ZM8.31402 18C8.41939 18.2927 8.61478 18.5461 8.87325 18.7254C9.13172 18.9046 9.44055 19.0009 9.75717 19.0009C10.0738 19.0009 10.3826 18.9046 10.6411 18.7254C10.8996 18.5461 11.095 18.2927 11.2003 18H8.313H8.31402ZM9.75666 4.00005C8.40372 4.00005 7.10619 4.52683 6.14952 5.46451C5.19284 6.40219 4.65539 7.67396 4.65539 9.00005V14C4.65543 14.1976 4.59579 14.3907 4.48399 14.555L3.50148 16H16.0108L15.0283 14.555C14.9169 14.3906 14.8576 14.1975 14.8579 14V9.00005C14.8579 7.67396 14.3205 6.40219 13.3638 5.46451C12.4071 4.52683 11.1096 4.00005 9.75666 4.00005Z" fill="white"/>
</svg>
