<svg width="16" height="16" viewBox="0 0 16 16" fill="none" xmlns="http://www.w3.org/2000/svg">
<path d="M12.6667 3.33333H8.66667C8.3 3.33333 8 3.03333 8 2.66667C8 2.3 8.3 2 8.66667 2H12.6667C13.4 2 14 2.6 14 3.33333V12.6667C14 13.4 13.4 14 12.6667 14H8.66667C8.3 14 8 13.7 8 13.3333C8 12.9667 8.3 12.6667 8.66667 12.6667H12.6667V3.33333Z" fill="white"/>
<path d="M2.23333 7.76669L4.09333 5.90669C4.1397 5.85906 4.19922 5.82635 4.26429 5.81274C4.32935 5.79913 4.397 5.80525 4.45857 5.8303C4.52014 5.85536 4.57283 5.89822 4.6099 5.9534C4.64697 6.00857 4.66674 6.07355 4.66667 6.14003V7.33336H9.33333C9.7 7.33336 10 7.63336 10 8.00003C10 8.36669 9.7 8.66669 9.33333 8.66669H4.66667V9.86003C4.66667 10.16 4.30667 10.3067 4.1 10.0934L2.24 8.23336C2.10667 8.10669 2.10667 7.89336 2.23333 7.76669V7.76669Z" fill="white"/>
</svg>
