<svg width="19" height="21" viewBox="0 0 19 21" fill="none" xmlns="http://www.w3.org/2000/svg">
<path d="M7.86511 2.24792C8.01755 1.87864 8.27903 1.56238 8.61604 1.3397C8.95305 1.11701 9.35022 0.998047 9.75666 0.998047C10.1631 0.998047 10.5603 1.11701 10.8973 1.3397C11.2343 1.56238 11.4958 1.87864 11.6482 2.24792C13.1569 2.65461 14.4877 3.53548 15.4362 4.75526C16.3847 5.97504 16.8984 7.46627 16.8984 8.99992V13.6969L18.7676 16.4449C18.8701 16.5955 18.9289 16.7706 18.9379 16.9514C18.9469 17.1322 18.9056 17.3121 18.8184 17.4717C18.7313 17.6313 18.6016 17.7648 18.4431 17.8578C18.2847 17.9508 18.1034 18 17.9187 17.9999H13.2918C13.169 18.833 12.744 19.5949 12.0948 20.1459C11.4455 20.6969 10.6155 21.0001 9.75666 21.0001C8.89785 21.0001 8.06779 20.6969 7.41854 20.1459C6.76929 19.5949 6.34432 18.833 6.22148 17.9999H1.59463C1.40992 18 1.22866 17.9508 1.07021 17.8578C0.911748 17.7648 0.78203 17.6313 0.69489 17.4717C0.60775 17.3121 0.566459 17.1322 0.57542 16.9514C0.584382 16.7706 0.64326 16.5955 0.745774 16.4449L2.61488 13.6969V8.99992C2.61488 5.77592 4.83904 3.05992 7.86511 2.24792ZM8.31402 17.9999C8.41939 18.2926 8.61478 18.546 8.87325 18.7252C9.13172 18.9045 9.44055 19.0007 9.75717 19.0007C10.0738 19.0007 10.3826 18.9045 10.6411 18.7252C10.8996 18.546 11.095 18.2926 11.2003 17.9999H8.313H8.31402ZM9.75666 3.99992C8.40372 3.99992 7.10619 4.52671 6.14952 5.46439C5.19284 6.40207 4.65539 7.67384 4.65539 8.99992V13.9999C4.65543 14.1975 4.59579 14.3906 4.48399 14.5549L3.50148 15.9999H16.0108L15.0283 14.5549C14.9169 14.3905 14.8576 14.1974 14.8579 13.9999V8.99992C14.8579 7.67384 14.3205 6.40207 13.3638 5.46439C12.4071 4.52671 11.1096 3.99992 9.75666 3.99992Z" fill="#1D201F"/>
</svg>
