<svg width="24" height="22" viewBox="0 0 24 22" fill="none" xmlns="http://www.w3.org/2000/svg">
<path d="M7.90758 8.56851H5.27188C4.90752 8.56851 4.6109 8.86515 4.6109 9.2295V12.5264C4.6109 12.8907 4.90754 13.1874 5.27188 13.1874H7.90778C8.27214 13.1874 8.56876 12.8907 8.56876 12.5264V9.2295C8.56876 8.86513 8.27212 8.56851 7.90758 8.56851V8.56851Z" fill="black"/>
<path d="M21.0953 0H2.63589C1.17803 0 0 1.17803 0 2.6357V19.1118C0 20.5697 1.17803 21.7477 2.63589 21.7477H21.0953C22.5531 21.7477 23.7312 20.5697 23.7312 19.1118V2.6357C23.7312 1.17803 22.5531 0 21.0953 0V0ZM7.90758 2.30521H10.5435C11.0859 2.30521 11.5352 2.74601 11.5352 3.29692C11.5352 3.84784 11.0944 4.28864 10.5435 4.28864H7.90758C7.36521 4.28864 6.91587 3.84784 6.91587 3.29692C6.91605 2.74602 7.36517 2.30521 7.90758 2.30521ZM3.9582 1.97471C4.68713 1.97471 5.28041 2.56798 5.28041 3.29691C5.28041 4.02585 4.68713 4.61912 3.9582 4.61912C3.22927 4.61912 2.63599 4.02585 2.63599 3.29691C2.63599 2.56798 3.22927 1.97471 3.9582 1.97471V1.97471ZM21.0954 18.4509C21.0954 18.8152 20.7988 19.1118 20.4344 19.1118L3.29721 19.112C2.93285 19.112 2.63623 18.8154 2.63623 18.451V7.24658C2.63623 6.88222 2.93287 6.5856 3.29721 6.5856H20.4344C20.7988 6.5856 21.0954 6.88224 21.0954 7.24658V18.4509ZM18.129 8.72983H11.5352C11.0776 8.72983 10.713 9.10271 10.713 9.55204C10.713 10.0012 11.0859 10.3742 11.5352 10.3742H18.129C18.5867 10.3742 18.9512 10.0014 18.9512 9.55204C18.9512 9.10271 18.5867 8.72983 18.129 8.72983V8.72983ZM18.129 12.0267H11.5352C11.0776 12.0267 10.713 12.3996 10.713 12.8489C10.713 13.298 11.0859 13.6711 11.5352 13.6711H18.129C18.5867 13.6711 18.9512 13.2982 18.9512 12.8489C18.9512 12.3996 18.5867 12.0267 18.129 12.0267ZM18.129 15.3236H5.60242C5.14479 15.3236 4.78021 15.6965 4.78021 16.1458C4.78021 16.5949 5.15309 16.968 5.60242 16.968H18.129C18.5867 16.968 18.9512 16.5951 18.9512 16.1458C18.9512 15.6965 18.5867 15.3236 18.129 15.3236Z" fill="black"/>
</svg>
