<svg width="19" height="18" viewBox="0 0 19 18" fill="none" xmlns="http://www.w3.org/2000/svg">
<path d="M18.5813 12.2812C18.6693 12.3913 18.7247 12.5239 18.7408 12.6639C18.757 12.8039 18.7334 12.9457 18.6727 13.0729C18.6121 13.2001 18.5168 13.3076 18.3978 13.3832C18.2788 13.4587 18.1409 13.4992 18 13.5H1.5V17.25C1.5 17.4489 1.42098 17.6397 1.28033 17.7803C1.13968 17.921 0.948912 18 0.75 18C0.551088 18 0.360322 17.921 0.21967 17.7803C0.0790178 17.6397 0 17.4489 0 17.25V1.5C0 1.30109 0.0790178 1.11032 0.21967 0.96967C0.360322 0.829018 0.551088 0.75 0.75 0.75H18C18.1409 0.750791 18.2788 0.79128 18.3978 0.866826C18.5168 0.942372 18.6121 1.04992 18.6727 1.17713C18.7334 1.30435 18.757 1.44609 18.7408 1.5861C18.7247 1.72611 18.6693 1.85873 18.5813 1.96875L14.4563 7.125L18.5813 12.2812Z" fill="#1D201F"/>
</svg>
